<mxfile host="app.diagrams.net" modified="2024-05-04T09:04:16.202Z" agent="Mozilla/5.0 (Windows NT 10.0; Win64; x64) AppleWebKit/537.36 (KHTML, like Gecko) Chrome/124.0.0.0 Safari/537.36 Edg/124.0.0.0" etag="ZujLhR10h1LKXmS9xsIP" version="24.3.1" type="github">
  <diagram id="C5RBs43oDa-KdzZeNtuy" name="Page-1">
    <mxGraphModel dx="996" dy="586" grid="1" gridSize="10" guides="1" tooltips="1" connect="1" arrows="1" fold="1" page="1" pageScale="1" pageWidth="827" pageHeight="1169" math="0" shadow="0">
      <root>
        <mxCell id="WIyWlLk6GJQsqaUBKTNV-0" />
        <mxCell id="WIyWlLk6GJQsqaUBKTNV-1" parent="WIyWlLk6GJQsqaUBKTNV-0" />
        <mxCell id="sTXRFUdw72h4hKvITjoP-5" value="" style="edgeStyle=orthogonalEdgeStyle;rounded=0;orthogonalLoop=1;jettySize=auto;html=1;" edge="1" parent="WIyWlLk6GJQsqaUBKTNV-1" source="sTXRFUdw72h4hKvITjoP-0" target="sTXRFUdw72h4hKvITjoP-4">
          <mxGeometry relative="1" as="geometry" />
        </mxCell>
        <mxCell id="sTXRFUdw72h4hKvITjoP-0" value="进入首页" style="rounded=1;whiteSpace=wrap;html=1;absoluteArcSize=1;arcSize=14;strokeWidth=2;fontSize=14;" vertex="1" parent="WIyWlLk6GJQsqaUBKTNV-1">
          <mxGeometry x="225" y="180" width="110" height="50" as="geometry" />
        </mxCell>
        <mxCell id="sTXRFUdw72h4hKvITjoP-1" value="结束" style="strokeWidth=2;html=1;shape=mxgraph.flowchart.terminator;whiteSpace=wrap;fontSize=14;" vertex="1" parent="WIyWlLk6GJQsqaUBKTNV-1">
          <mxGeometry x="230" y="570" width="100" height="60" as="geometry" />
        </mxCell>
        <mxCell id="sTXRFUdw72h4hKvITjoP-3" value="" style="edgeStyle=orthogonalEdgeStyle;rounded=0;orthogonalLoop=1;jettySize=auto;html=1;" edge="1" parent="WIyWlLk6GJQsqaUBKTNV-1" source="sTXRFUdw72h4hKvITjoP-2" target="sTXRFUdw72h4hKvITjoP-0">
          <mxGeometry relative="1" as="geometry" />
        </mxCell>
        <mxCell id="sTXRFUdw72h4hKvITjoP-2" value="开始" style="strokeWidth=2;html=1;shape=mxgraph.flowchart.terminator;whiteSpace=wrap;fontSize=14;" vertex="1" parent="WIyWlLk6GJQsqaUBKTNV-1">
          <mxGeometry x="230" y="80" width="100" height="60" as="geometry" />
        </mxCell>
        <mxCell id="sTXRFUdw72h4hKvITjoP-7" value="" style="edgeStyle=orthogonalEdgeStyle;rounded=0;orthogonalLoop=1;jettySize=auto;html=1;" edge="1" parent="WIyWlLk6GJQsqaUBKTNV-1" source="sTXRFUdw72h4hKvITjoP-4" target="sTXRFUdw72h4hKvITjoP-6">
          <mxGeometry relative="1" as="geometry" />
        </mxCell>
        <mxCell id="sTXRFUdw72h4hKvITjoP-4" value="点击某个资源模块" style="rounded=1;whiteSpace=wrap;html=1;absoluteArcSize=1;arcSize=14;strokeWidth=2;fontSize=14;" vertex="1" parent="WIyWlLk6GJQsqaUBKTNV-1">
          <mxGeometry x="217.5" y="270" width="125" height="50" as="geometry" />
        </mxCell>
        <mxCell id="sTXRFUdw72h4hKvITjoP-9" value="" style="edgeStyle=orthogonalEdgeStyle;rounded=0;orthogonalLoop=1;jettySize=auto;html=1;" edge="1" parent="WIyWlLk6GJQsqaUBKTNV-1" source="sTXRFUdw72h4hKvITjoP-6" target="sTXRFUdw72h4hKvITjoP-8">
          <mxGeometry relative="1" as="geometry" />
        </mxCell>
        <mxCell id="sTXRFUdw72h4hKvITjoP-6" value="点击收藏按钮" style="rounded=1;whiteSpace=wrap;html=1;absoluteArcSize=1;arcSize=14;strokeWidth=2;fontSize=14;" vertex="1" parent="WIyWlLk6GJQsqaUBKTNV-1">
          <mxGeometry x="225" y="370" width="110" height="50" as="geometry" />
        </mxCell>
        <mxCell id="sTXRFUdw72h4hKvITjoP-11" value="" style="edgeStyle=orthogonalEdgeStyle;rounded=0;orthogonalLoop=1;jettySize=auto;html=1;" edge="1" parent="WIyWlLk6GJQsqaUBKTNV-1" source="sTXRFUdw72h4hKvITjoP-8" target="sTXRFUdw72h4hKvITjoP-10">
          <mxGeometry relative="1" as="geometry" />
        </mxCell>
        <mxCell id="sTXRFUdw72h4hKvITjoP-12" value="否" style="edgeLabel;html=1;align=center;verticalAlign=middle;resizable=0;points=[];" vertex="1" connectable="0" parent="sTXRFUdw72h4hKvITjoP-11">
          <mxGeometry x="0.1133" y="2" relative="1" as="geometry">
            <mxPoint as="offset" />
          </mxGeometry>
        </mxCell>
        <mxCell id="sTXRFUdw72h4hKvITjoP-14" value="" style="edgeStyle=orthogonalEdgeStyle;rounded=0;orthogonalLoop=1;jettySize=auto;html=1;" edge="1" parent="WIyWlLk6GJQsqaUBKTNV-1" source="sTXRFUdw72h4hKvITjoP-8" target="sTXRFUdw72h4hKvITjoP-13">
          <mxGeometry relative="1" as="geometry" />
        </mxCell>
        <mxCell id="sTXRFUdw72h4hKvITjoP-15" value="是" style="edgeLabel;html=1;align=center;verticalAlign=middle;resizable=0;points=[];" vertex="1" connectable="0" parent="sTXRFUdw72h4hKvITjoP-14">
          <mxGeometry x="-0.41" y="2" relative="1" as="geometry">
            <mxPoint as="offset" />
          </mxGeometry>
        </mxCell>
        <mxCell id="sTXRFUdw72h4hKvITjoP-8" value="是否已登录" style="shape=rhombus;perimeter=rhombusPerimeter;whiteSpace=wrap;html=1;align=center;fontSize=14;" vertex="1" parent="WIyWlLk6GJQsqaUBKTNV-1">
          <mxGeometry x="390" y="360" width="110" height="70" as="geometry" />
        </mxCell>
        <mxCell id="sTXRFUdw72h4hKvITjoP-10" value="跳转登录页面" style="rounded=1;whiteSpace=wrap;html=1;absoluteArcSize=1;arcSize=14;strokeWidth=2;fontSize=14;" vertex="1" parent="WIyWlLk6GJQsqaUBKTNV-1">
          <mxGeometry x="390" y="250" width="110" height="50" as="geometry" />
        </mxCell>
        <mxCell id="sTXRFUdw72h4hKvITjoP-17" value="" style="edgeStyle=orthogonalEdgeStyle;rounded=0;orthogonalLoop=1;jettySize=auto;html=1;" edge="1" parent="WIyWlLk6GJQsqaUBKTNV-1" source="sTXRFUdw72h4hKvITjoP-13" target="sTXRFUdw72h4hKvITjoP-16">
          <mxGeometry relative="1" as="geometry" />
        </mxCell>
        <mxCell id="sTXRFUdw72h4hKvITjoP-13" value="收藏成功" style="rounded=1;whiteSpace=wrap;html=1;absoluteArcSize=1;arcSize=14;strokeWidth=2;fontSize=14;" vertex="1" parent="WIyWlLk6GJQsqaUBKTNV-1">
          <mxGeometry x="390" y="470" width="110" height="50" as="geometry" />
        </mxCell>
        <mxCell id="sTXRFUdw72h4hKvITjoP-18" value="" style="edgeStyle=orthogonalEdgeStyle;rounded=0;orthogonalLoop=1;jettySize=auto;html=1;" edge="1" parent="WIyWlLk6GJQsqaUBKTNV-1" source="sTXRFUdw72h4hKvITjoP-16" target="sTXRFUdw72h4hKvITjoP-1">
          <mxGeometry relative="1" as="geometry" />
        </mxCell>
        <mxCell id="sTXRFUdw72h4hKvITjoP-16" value="查看个人收藏夹" style="rounded=1;whiteSpace=wrap;html=1;absoluteArcSize=1;arcSize=14;strokeWidth=2;fontSize=14;" vertex="1" parent="WIyWlLk6GJQsqaUBKTNV-1">
          <mxGeometry x="225" y="470" width="110" height="50" as="geometry" />
        </mxCell>
      </root>
    </mxGraphModel>
  </diagram>
</mxfile>
